<svg xmlns="http://www.w3.org/2000/svg" width="25" height="24" viewBox="0 0 25 24">
    <g fill="none" fill-rule="evenodd">
        <path fill="#FFF" fill-opacity="0" fill-rule="nonzero" d="M0 0H24V24H0z" transform="translate(.86)"/>
        <path fill="#5F0080" d="M11.2 5.6c3.093 0 5.6 2.507 5.6 5.6 0 1.26-.417 2.425-1.12 3.36.03.023.059.047.086.074l2.4 2.4c.312.313.312.82 0 1.132-.313.312-.82.312-1.132 0l-2.4-2.4-.073-.086c-.936.703-2.1 1.12-3.361 1.12-3.093 0-5.6-2.507-5.6-5.6 0-3.093 2.507-5.6 5.6-5.6zm0 1.6c-2.21 0-4 1.79-4 4s1.79 4 4 4 4-1.79 4-4-1.79-4-4-4z" transform="translate(.86)"/>
    </g>
</svg>
